<?xml version="1.0" encoding="UTF-8"?>
<svg width="900" height="600" viewBox="0 0 900 600" fill="none" xmlns="http://www.w3.org/2000/svg">
  <!-- Switches -->
  <g id="switches">
    <circle id="s0" cx="150" cy="100" r="28" fill="#2563eb" stroke="#222" stroke-width="2"/>
    <circle id="s1" cx="300" cy="100" r="28" fill="#2563eb" stroke="#222" stroke-width="2"/>
    <circle id="s2" cx="450" cy="100" r="28" fill="#2563eb" stroke="#222" stroke-width="2"/>
    <circle id="s3" cx="600" cy="180" r="28" fill="#2563eb" stroke="#222" stroke-width="2"/>
    <circle id="s4" cx="750" cy="260" r="28" fill="#2563eb" stroke="#222" stroke-width="2"/>
    <circle id="s5" cx="600" cy="340" r="28" fill="#2563eb" stroke="#222" stroke-width="2"/>
    <circle id="s6" cx="450" cy="260" r="28" fill="#2563eb" stroke="#222" stroke-width="2"/>
    <circle id="s7" cx="300" cy="340" r="28" fill="#2563eb" stroke="#222" stroke-width="2"/>
    <circle id="s8" cx="150" cy="260" r="28" fill="#2563eb" stroke="#222" stroke-width="2"/>
    <circle id="s9" cx="300" cy="500" r="28" fill="#2563eb" stroke="#222" stroke-width="2"/>
  </g>
  <!-- Hosts -->
  <g id="hosts">
    <rect id="h0" x="110" y="40" width="32" height="32" rx="6" fill="#16a34a" stroke="#222" stroke-width="2"/>
    <rect id="h1" x="260" y="40" width="32" height="32" rx="6" fill="#16a34a" stroke="#222" stroke-width="2"/>
    <rect id="h2" x="410" y="40" width="32" height="32" rx="6" fill="#16a34a" stroke="#222" stroke-width="2"/>
    <rect id="h3" x="560" y="120" width="32" height="32" rx="6" fill="#16a34a" stroke="#222" stroke-width="2"/>
    <rect id="h4" x="790" y="220" width="32" height="32" rx="6" fill="#16a34a" stroke="#222" stroke-width="2"/>
    <rect id="h5" x="640" y="380" width="32" height="32" rx="6" fill="#16a34a" stroke="#222" stroke-width="2"/>
    <rect id="h6" x="410" y="300" width="32" height="32" rx="6" fill="#16a34a" stroke="#222" stroke-width="2"/>
    <rect id="h7" x="260" y="380" width="32" height="32" rx="6" fill="#16a34a" stroke="#222" stroke-width="2"/>
    <rect id="h8" x="110" y="220" width="32" height="32" rx="6" fill="#16a34a" stroke="#222" stroke-width="2"/>
    <rect id="h9" x="260" y="540" width="32" height="32" rx="6" fill="#16a34a" stroke="#222" stroke-width="2"/>
  </g>
  <!-- Host-Switch Links -->
  <g stroke="#888" stroke-width="2">
    <line x1="126" y1="72" x2="150" y2="100"/>
    <line x1="276" y1="72" x2="300" y2="100"/>
    <line x1="426" y1="72" x2="450" y2="100"/>
    <line x1="576" y1="152" x2="600" y2="180"/>
    <line x1="806" y1="252" x2="750" y2="260"/>
    <line x1="656" y1="396" x2="600" y2="340"/>
    <line x1="426" y1="316" x2="450" y2="260"/>
    <line x1="276" y1="396" x2="300" y2="340"/>
    <line x1="126" y1="252" x2="150" y2="260"/>
    <line x1="276" y1="556" x2="300" y2="500"/>
  </g>
  <!-- Switch-Switch Links -->
  <g stroke="#f59e42" stroke-width="3">
    <line x1="150" y1="100" x2="300" y2="100"/>
    <line x1="150" y1="100" x2="450" y2="100"/>
    <line x1="300" y1="100" x2="450" y2="100"/>
    <line x1="450" y1="100" x2="600" y2="180"/>
    <line x1="600" y1="180" x2="750" y2="260"/>
    <line x1="600" y1="180" x2="450" y2="260"/>
    <line x1="750" y1="260" x2="600" y2="340"/>
    <line x1="600" y1="340" x2="300" y2="340"/>
    <line x1="450" y1="260" x2="600" y2="340"/>
    <line x1="300" y1="340" x2="150" y2="260"/>
    <line x1="300" y1="340" x2="300" y2="500"/>
    <line x1="300" y1="340" x2="750" y2="260"/>
    <line x1="300" y1="340" x2="450" y2="260"/>
    <line x1="150" y1="260" x2="300" y2="500"/>
    <line x1="600" y1="340" x2="300" y2="500"/>
    <line x1="750" y1="260" x2="150" y2="260"/>
  </g>
  <!-- Labels -->
  <g font-family="monospace" font-size="16" fill="#fff" text-anchor="middle">
    <text x="150" y="105">s0</text>
    <text x="300" y="105">s1</text>
    <text x="450" y="105">s2</text>
    <text x="600" y="185">s3</text>
    <text x="750" y="265">s4</text>
    <text x="600" y="345">s5</text>
    <text x="450" y="265">s6</text>
    <text x="300" y="345">s7</text>
    <text x="150" y="265">s8</text>
    <text x="300" y="505">s9</text>
    <text x="126" y="60" fill="#222">h0</text>
    <text x="276" y="60" fill="#222">h1</text>
    <text x="426" y="60" fill="#222">h2</text>
    <text x="576" y="110" fill="#222">h3</text>
    <text x="806" y="210" fill="#222">h4</text>
    <text x="656" y="420" fill="#222">h5</text>
    <text x="426" y="330" fill="#222">h6</text>
    <text x="276" y="420" fill="#222">h7</text>
    <text x="126" y="230" fill="#222">h8</text>
    <text x="276" y="570" fill="#222">h9</text>
  </g>
</svg>
