<?xml version="1.0" encoding="UTF-8" standalone="no"?><!DOCTYPE svg PUBLIC "-//W3C//DTD SVG 1.1//EN" "http://www.w3.org/Graphics/SVG/1.1/DTD/svg11.dtd"><svg width="100%" height="100%" viewBox="0 0 1973 1973" version="1.1" xmlns="http://www.w3.org/2000/svg" xmlns:xlink="http://www.w3.org/1999/xlink" xml:space="preserve" xmlns:serif="http://www.serif.com/" style="fill-rule:evenodd;clip-rule:evenodd;stroke-linejoin:round;stroke-miterlimit:2;"><g><path d="M1103.136,781.961c0,0 -12.865,-10.363 -36.533,3.352l-728.767,423.984c0,0 -28.39,29.11 -28.39,53.063l0,67.647l6.025,12.208l553.031,323.336l32.847,-53.93l-5.365,-85.713l712.63,-413.181c0,0 28.028,-15.65 43.492,-11.064l-548.971,-319.702Z" style="fill:#474747;fill-rule:nonzero;"/><path d="M900.077,1523.285c-21.428,12.415 -38.951,42.827 -38.951,67.588l0,52.678c0,24.751 17.523,34.859 38.951,22.444l723.755,-419.383c21.421,-12.415 38.948,-42.827 38.948,-67.578l0,-52.678c0,-24.761 -17.527,-34.859 -38.948,-22.454l-723.755,419.383Z" style="fill:#302f2f;fill-rule:nonzero;"/><path d="M348.397,1201.478c-21.418,12.415 -38.951,42.827 -38.951,67.578l0,52.678c0,24.761 17.533,34.859 38.951,22.454l723.758,-419.385c21.422,-12.413 38.949,-42.826 38.949,-67.584l0,-52.677c0,-24.757 -17.527,-34.86 -38.949,-22.446l-723.758,419.382Z" style="fill:#474747;fill-rule:nonzero;"/><path id="Light1" d="M950.605,1536.568c-16.586,10.009 -30.165,34.001 -30.165,53.319c0,19.308 13.579,27.217 30.165,17.553c16.596,-9.654 30.175,-33.646 30.175,-53.309c0,-19.673 -13.579,-27.572 -30.175,-17.563Z" style="fill:none;fill-rule:nonzero;"/><path id="Lght2" d="M1036.169,1482.293c-16.592,10.009 -30.169,34.001 -30.169,53.319c0,19.318 13.577,27.217 30.169,17.553c16.594,-9.654 30.171,-33.646 30.171,-53.309c0,-19.663 -13.577,-27.572 -30.171,-17.563Z" style="fill:none;fill-rule:nonzero;"/><path id="Light3" d="M1121.731,1430.739c-16.594,10.009 -30.17,34.001 -30.17,53.309c0,19.318 13.576,27.217 30.17,17.563c16.593,-9.654 30.17,-33.646 30.17,-53.319c0,-19.663 -13.577,-27.562 -30.17,-17.553Z" style="fill:none;fill-rule:nonzero;"/><path d="M1469.6,1240.045l0,59.029l50.472,-29.514l0,-58.23l-50.472,28.716Z" style="fill:#5478dd;fill-rule:nonzero;"/><path d="M1544.307,1197.583l0,59.029l50.472,-29.514l0,-58.23l-50.472,28.716Z" style="fill:#5478dd;fill-rule:nonzero;"/><path d="M374.391,1186.499l0,-494.016l27.325,-17.241l0,495.43l-27.325,15.827Z" style="fill:#302f2f;fill-rule:nonzero;"/><path d="M374.391,692.483l-23.44,-13.41l0,521.104l23.44,-13.677l0,-494.016Z" style="fill:#191919;fill-rule:nonzero;"/><path d="M350.951,679.712l28.094,-17.239l22.671,12.769l-27.325,17.241l-23.44,-12.771Z" style="fill:#050505;fill-rule:nonzero;"/><path d="M696.405,1000.913l0,-494.023l27.325,-17.24l0,495.426l-27.325,15.837Z" style="fill:#302f2f;fill-rule:nonzero;"/><path d="M696.405,506.89l-23.44,-13.408l0,521.108l23.44,-13.677l0,-494.023Z" style="fill:#191919;fill-rule:nonzero;"/><path d="M672.965,494.12l28.094,-17.239l22.671,12.769l-27.325,17.24l-23.44,-12.77Z" style="fill:#050505;fill-rule:nonzero;"/><path d="M998.452,824.949l0,-494.022l27.329,-17.24l0,495.426l-27.329,15.836Z" style="fill:#302f2f;fill-rule:nonzero;"/><path d="M998.452,330.927l-23.431,-13.408l0,521.107l23.431,-13.676l0,-494.022Z" style="fill:#191919;fill-rule:nonzero;"/><path d="M975.021,318.158l28.092,-17.241l22.668,12.77l-27.329,17.24l-23.431,-12.769Z" style="fill:#050505;fill-rule:nonzero;"/></g></svg>