<?xml version="1.0" encoding="UTF-8" standalone="no"?><!DOCTYPE svg PUBLIC "-//W3C//DTD SVG 1.1//EN" "http://www.w3.org/Graphics/SVG/1.1/DTD/svg11.dtd"><svg width="100%" height="100%" viewBox="0 0 1973 1973" version="1.1" xmlns="http://www.w3.org/2000/svg" xmlns:xlink="http://www.w3.org/1999/xlink" xml:space="preserve" xmlns:serif="http://www.serif.com/" style="fill-rule:evenodd;clip-rule:evenodd;stroke-linejoin:round;stroke-miterlimit:2;"><g><path d="M869.09,781.961c0,0 12.865,-10.363 36.533,3.352l728.767,423.984c0,0 28.39,29.11 28.39,53.063l0,67.647l-6.025,12.208l-553.031,323.336l-32.847,-53.93l5.365,-85.713l-712.63,-413.181c0,0 -28.028,-15.65 -43.492,-11.064l548.971,-319.702Z" style="fill:#474747;fill-rule:nonzero;"/><path d="M1072.149,1523.285c21.428,12.415 38.951,42.827 38.951,67.588l0,52.678c0,24.751 -17.523,34.859 -38.951,22.444l-723.755,-419.383c-21.421,-12.415 -38.948,-42.827 -38.948,-67.578l0,-52.678c0,-24.761 17.527,-34.859 38.948,-22.454l723.755,419.383Z" style="fill:#302f2f;fill-rule:nonzero;"/><path d="M1623.829,1201.478c21.418,12.415 38.951,42.827 38.951,67.578l0,52.678c0,24.761 -17.533,34.859 -38.951,22.454l-723.758,-419.385c-21.422,-12.413 -38.949,-42.826 -38.949,-67.584l0,-52.677c0,-24.757 17.527,-34.86 38.949,-22.446l723.758,419.382Z" style="fill:#474747;fill-rule:nonzero;"/><path id="Light1" d="M1021.621,1536.568c16.586,10.009 30.165,34.001 30.165,53.319c0,19.308 -13.579,27.217 -30.165,17.553c-16.596,-9.654 -30.175,-33.646 -30.175,-53.309c0,-19.673 13.579,-27.572 30.175,-17.563Z" style="fill:none;fill-rule:nonzero;"/><path id="Lght2" d="M936.057,1482.293c16.592,10.009 30.169,34.001 30.169,53.319c0,19.318 -13.577,27.217 -30.169,17.553c-16.594,-9.654 -30.171,-33.646 -30.171,-53.309c0,-19.663 13.577,-27.572 30.171,-17.563Z" style="fill:none;fill-rule:nonzero;"/><path id="Light3" d="M850.495,1430.739c16.594,10.009 30.17,34.001 30.17,53.309c0,19.318 -13.576,27.217 -30.17,17.563c-16.593,-9.654 -30.17,-33.646 -30.17,-53.319c0,-19.663 13.577,-27.562 30.17,-17.553Z" style="fill:none;fill-rule:nonzero;"/><path d="M502.626,1240.045l0,59.029l-50.472,-29.514l0,-58.23l50.472,28.716Z" style="fill:#5478dd;fill-rule:nonzero;"/><path d="M427.919,1197.583l0,59.029l-50.472,-29.514l0,-58.23l50.472,28.716Z" style="fill:#5478dd;fill-rule:nonzero;"/><path d="M1597.835,1186.499l0,-494.016l-27.325,-17.241l0,495.43l27.325,15.827Z" style="fill:#302f2f;fill-rule:nonzero;"/><path d="M1597.835,692.483l23.44,-13.41l0,521.104l-23.44,-13.677l0,-494.016Z" style="fill:#191919;fill-rule:nonzero;"/><path d="M1621.275,679.712l-28.094,-17.239l-22.671,12.769l27.325,17.241l23.44,-12.771Z" style="fill:#050505;fill-rule:nonzero;"/><path d="M1275.821,1000.913l0,-494.023l-27.325,-17.24l0,495.426l27.325,15.837Z" style="fill:#302f2f;fill-rule:nonzero;"/><path d="M1275.821,506.89l23.44,-13.408l0,521.108l-23.44,-13.677l0,-494.023Z" style="fill:#191919;fill-rule:nonzero;"/><path d="M1299.261,494.12l-28.094,-17.239l-22.671,12.769l27.325,17.24l23.44,-12.77Z" style="fill:#050505;fill-rule:nonzero;"/><path d="M973.774,824.949l0,-494.022l-27.329,-17.24l0,495.426l27.329,15.836Z" style="fill:#302f2f;fill-rule:nonzero;"/><path d="M973.774,330.927l23.431,-13.408l0,521.107l-23.431,-13.676l0,-494.022Z" style="fill:#191919;fill-rule:nonzero;"/><path d="M997.205,318.158l-28.092,-17.241l-22.668,12.77l27.329,17.24l23.431,-12.769Z" style="fill:#050505;fill-rule:nonzero;"/></g></svg>